:SAMPLES-PER-SECOND 30
:FRAME-RANGE 1-744
:FULLY-SPECIFIED
:DEGREES
396
root  -8.32874 35.4978 97.4009 18.0798 16.1843 -2.13722
RightUpLeg  -51.4747 13.5381 -22.0413
RightLeg  51.3553 -3.21154 -4.66417
RightFoot  -5.03762 -0.284572 4.54174
RightToes  -5.28216e-011 1.2921e-014 -6.02303e-014
Spine  23.5648 -2.085 3.26445
Spine1  7.68983 0.0291944 -3.5381
HEad  9.85615 1.80574 1.79985
LeftShoulder1  3.19851 -14.801 -10.6325
LeftArm  -20.9119 -47.1457 -32.2159
LeftForeArm  -1.6554 -4.73321 -7.12258
LeftHand  0.232985 -0.827795 -4.29127
RightShoulder  3.08774 9.31907 18.0305
RightArm  -24.2802 49.8412 56.9378
RightForeArm  23.8736 9.48683 0.677783
RightHand  -0.406379 4.06488 -5.2567
LeftUpLeg  -47.4939 6.70236 11.8594
LeftLeg  39.4737 -4.32097 -3.41523
LeftFoot  -6.705 0.408217 -9.07943
LeftToes  -9.4837e-011 -7.11147e-011 -1.07582e-011
397
root  -7.61642 35.1895 97.1094 18.6987 15.4214 -2.68524
RightUpLeg  -53.7414 10.54 -17.3333
RightLeg  55.8677 -2.92128 -5.05238
RightFoot  -9.85614 -0.127172 4.64333
RightToes  -5.28216e-011 1.2921e-014 -6.02303e-014
Spine  25.5642 -1.78895 2.7971
Spine1  7.64076 0.251707 -3.13337
HEad  7.77175 1.45338 1.76173
LeftShoulder1  3.11879 -15.1525 -9.77495
LeftArm  -22.2184 -49.2256 -31.7824
LeftForeArm  -2.12039 -4.17142 -6.68911
LeftHand  0.21355 -0.484212 -4.19731
RightShoulder  3.02643 9.44455 17.246
RightArm  -25.2631 50.94 56.5721
RightForeArm  22.8394 9.08361 -0.126508
RightHand  -0.429453 3.90189 -5.62623
LeftUpLeg  -50.1116 7.4503 10.8379
LeftLeg  42.8974 -4.10269 -3.6638
LeftFoot  -8.08329 0.267193 -7.68606
LeftToes  -9.4837e-011 -7.11147e-011 -1.07582e-011
398
root  -6.96708 34.8343 96.8478 19.3669 14.2622 -3.52777
RightUpLeg  -55.5461 6.62865 -10.8793
RightLeg  58.7747 -1.70687 -3.51144
RightFoot  -13.7117 0.0393003 6.39358
RightToes  -5.28216e-011 1.2921e-014 -6.02303e-014
Spine  27.1906 -1.39157 2.49596
Spine1  7.85171 0.743096 -2.96256
HEad  5.63516 1.19418 1.38578
LeftShoulder1  3.11248 -15.509 -9.37799
LeftArm  -23.5428 -51.0867 -30.5944
LeftForeArm  -2.01457 -3.73548 -6.39941
LeftHand  0.233237 -0.262673 -4.79647
RightShoulder  2.96209 9.65192 16.2902
RightArm  -26.1388 51.9342 56.0786
RightForeArm  21.7107 8.93075 -0.747136
RightHand  -0.463398 3.63825 -6.20891
LeftUpLeg  -52.758 7.98335 10.4098
LeftLeg  46.3835 -3.32907 -3.30031
LeftFoot  -9.55048 0.160226 -6.58817
LeftToes  -9.4837e-011 -7.11147e-011 -1.07582e-011
399
root  -6.37499 34.4242 96.6138 20.6432 13.2163 -4.04936
RightUpLeg  -57.6092 2.16839 -4.30939
RightLeg  60.5557 -0.402155 -1.27538
RightFoot  -16.7584 0.293686 8.60018
RightToes  -5.28216e-011 1.2921e-014 -6.02303e-014
Spine  28.0666 -1.02991 1.88891
Spine1  8.23603 1.08279 -2.57875
HEad  3.3055 1.02605 0.908748
LeftShoulder1  3.0829 -15.8893 -8.8372
LeftArm  -25.0339 -52.6429 -29.5569
LeftForeArm  -2.38399 -3.18046 -5.98682
LeftHand  0.191644 -0.168545 -4.01542
RightShoulder  2.85411 9.74473 15.2054
RightArm  -26.6673 53.2063 55.7687
RightForeArm  20.8697 8.42289 -1.3473
RightHand  -0.509159 3.65532 -6.78408
LeftUpLeg  -55.8428 8.04416 9.91051
LeftLeg  49.593 -2.362 -2.50625
LeftFoot  -11.0442 0.0812926 -5.84063
LeftToes  -9.4837e-011 -7.11147e-011 -1.07582e-011
400
root  -5.83131 33.9735 96.4053 21.803 12.3719 -4.28384
RightUpLeg  -59.7159 -1.22344 0.910898
RightLeg  61.9452 0.716593 0.932717
RightFoot  -18.5778 0.549043 10.6532
RightToes  -5.28216e-011 1.2921e-014 -6.02303e-014
Spine  29.225 -0.803241 1.49009
Spine1  8.57436 1.27382 -2.26582
HEad  1.13921 0.534511 0.477542
LeftShoulder1  3.0624 -16.3275 -8.31649
LeftArm  -26.5551 -54.2517 -28.1153
LeftForeArm  -2.71466 -2.50997 -5.63059
LeftHand  0.211908 -0.0847073 -4.52056
RightShoulder  2.71816 9.88077 13.8224
RightArm  -27.3468 54.331 55.3326
RightForeArm  19.7571 8.1977 -1.91113
RightHand  -0.550936 3.61236 -7.35072
LeftUpLeg  -58.8202 8.30825 8.98245
LeftLeg  52.7572 -1.87976 -2.15534
LeftFoot  -12.4712 0.0239496 -5.14449
LeftToes  -9.4837e-011 -7.11147e-011 -1.07582e-011
401
root  -5.36539 33.4405 96.2032 23.1322 11.5128 -4.77597
RightUpLeg  -62.2826 -2.48884 4.33814
RightLeg  63.1577 0.93545 1.45763
RightFoot  -19.4221 0.66559 11.261
RightToes  -5.28216e-011 1.2921e-014 -6.02303e-014
Spine  30.4029 -0.510989 1.26829
Spine1  8.43003 1.50383 -1.71502
HEad  -1.23596 0.213339 -0.32052
LeftShoulder1  3.0162 -16.5744 -7.83779
LeftArm  -28.2896 -55.3948 -27.0735
LeftForeArm  -2.85157 -2.34488 -5.15138
LeftHand  0.213036 -0.0828042 -4.54647
RightShoulder  2.57468 9.92104 12.5532
RightArm  -27.6681 55.4176 54.6257
RightForeArm  18.5162 8.03537 -2.14179
RightHand  -0.60161 3.71984 -7.9142
LeftUpLeg  -62.3065 8.97943 8.25512
LeftLeg  56.271 -1.62642 -2.08005
LeftFoot  -13.7566 -0.01601 -4.66692
LeftToes  -9.4837e-011 -7.11147e-011 -1.07582e-011
402
root  -4.99328 32.7986 96.0165 24.246 10.8654 -5.21323
RightUpLeg  -64.7236 -1.82348 5.39226
RightLeg  64.4437 0.894493 1.45385
RightFoot  -19.2258 0.766077 12.9662
RightToes  -5.28216e-011 1.2921e-014 -6.02303e-014
Spine  31.7657 -0.280274 1.12874
Spine1  8.30763 1.67173 -1.18965
HEad  -3.73954 -0.0289494 -0.795935
LeftShoulder1  2.90469 -16.8607 -6.97459
LeftArm  -30.007 -56.376 -25.7596
LeftForeArm  -3.36556 -2.40581 -4.75833
LeftHand  0.179989 -0.174178 -3.76574
RightShoulder  2.44024 9.89552 11.4639
RightArm  -28.3119 56.6073 53.7071
RightForeArm  17.5347 8.21689 -2.40691
RightHand  -0.628232 3.6906 -8.2767
LeftUpLeg  -65.8153 9.32584 7.79521
LeftLeg  60.1154 -1.31407 -1.86945
LeftFoot  -15.1581 -0.0557602 -4.39748
LeftToes  -9.4837e-011 -7.11147e-011 -1.07582e-011
403
root  -4.64005 32.0402 95.8407 25.1806 10.3906 -5.43289
RightUpLeg  -67.3138 -0.786995 5.16387
RightLeg  66.7047 0.264615 0.00905366
RightFoot  -19.7057 0.450948 7.98573
RightToes  -5.28216e-011 1.2921e-014 -6.02303e-014
Spine  33.0655 -0.162851 1.2351
Spine1  8.37302 1.63396 -0.60478
HEad  -6.14165 -0.417037 -1.16519
LeftShoulder1  2.86938 -17.2948 -6.43814
LeftArm  -31.6942 -57.1017 -23.7975
LeftForeArm  -3.91628 -2.86003 -4.56425
LeftHand  0.163588 -0.197879 -3.40358
RightShoulder  2.3226 9.87568 10.5003
RightArm  -28.9779 57.7054 52.2896
RightForeArm  16.6911 8.53091 -2.44475
RightHand  -0.644326 3.52405 -8.62915
LeftUpLeg  -69.2692 8.95131 7.54968
LeftLeg  64.2749 -0.800775 -1.11663
LeftFoot  -16.8563 -0.0999828 -4.17158
LeftToes  -9.4837e-011 -7.11147e-011 -1.07582e-011
